<svg xmlns="http://www.w3.org/2000/svg" viewBox="0 0 100 100">
  <defs>
    <linearGradient id="g" x1="0%" y1="0%" x2="100%" y2="100%">
      <stop offset="0%" style="stop-color:#8b5cf6"/>
      <stop offset="100%" style="stop-color:#6366f1"/>
    </linearGradient>
  </defs>
  <rect width="100" height="100" rx="20" fill="url(#g)"/>
  <path d="M30 25 h40 a5 5 0 0 1 5 5 v40 a5 5 0 0 1-5 5 h-40 a5 5 0 0 1-5-5 v-40 a5 5 0 0 1 5-5z" fill="none" stroke="white" stroke-width="3"/>
  <line x1="35" y1="38" x2="65" y2="38" stroke="white" stroke-width="2.5" stroke-linecap="round"/>
  <line x1="35" y1="48" x2="60" y2="48" stroke="white" stroke-width="2.5" stroke-linecap="round" opacity="0.8"/>
  <line x1="35" y1="58" x2="55" y2="58" stroke="white" stroke-width="2.5" stroke-linecap="round" opacity="0.6"/>
  <circle cx="72" cy="72" r="14" fill="#a78bfa"/>
  <path d="M68 72 l3 3 l6-6" stroke="white" stroke-width="2.5" fill="none" stroke-linecap="round" stroke-linejoin="round"/>
</svg>